<svg width="26" height="26" viewBox="0 0 26 26" fill="none" xmlns="http://www.w3.org/2000/svg">
<rect width="26" height="26" fill="#E5E5E5"/>
<g id="Day 1384 Landing Page UI Design" clip-path="url(#clip0_0_1)">
<rect width="1600" height="1200" transform="translate(-453 -1072)" fill="white"/>
<rect id="Rectangle 18" x="-453" y="-1072" width="1600" height="1200" fill="#EDEDF9"/>
<g id="Group 29">
<g id="Rectangle 14" filter="url(#filter0_d_0_1)">
<path d="M-360 -1008C-360 -1021.81 -348.807 -1033 -335 -1033H1055C1068.81 -1033 1080 -1021.81 1080 -1008V66C1080 79.8071 1068.81 91 1055 91H-335C-348.807 91 -360 79.8071 -360 66V-1008Z" fill="white"/>
</g>
<g id="Group 25">
<g id="Group 24">
<g id="icons/code" clip-path="url(#clip1_0_1)">
<path id="Vector" d="M7.58333 8.66669L3.25 13L7.58333 17.3334" stroke="#202142" stroke-width="2.36364" stroke-linecap="round" stroke-linejoin="round"/>
<path id="Vector_2" d="M18.4167 8.66669L22.75 13L18.4167 17.3334" stroke="#202142" stroke-width="2.36364" stroke-linecap="round" stroke-linejoin="round"/>
<path id="Vector_3" d="M15.1667 4.33331L10.8333 21.6666" stroke="#202142" stroke-width="2.36364" stroke-linecap="round" stroke-linejoin="round"/>
</g>
</g>
</g>
</g>
</g>
<defs>
<filter id="filter0_d_0_1" x="-405" y="-1063" width="1530" height="1214" filterUnits="userSpaceOnUse" color-interpolation-filters="sRGB">
<feFlood flood-opacity="0" result="BackgroundImageFix"/>
<feColorMatrix in="SourceAlpha" type="matrix" values="0 0 0 0 0 0 0 0 0 0 0 0 0 0 0 0 0 0 127 0" result="hardAlpha"/>
<feOffset dy="15"/>
<feGaussianBlur stdDeviation="22.5"/>
<feColorMatrix type="matrix" values="0 0 0 0 0.095 0 0 0 0 0.106176 0 0 0 0 0.475 0 0 0 0.05 0"/>
<feBlend mode="normal" in2="BackgroundImageFix" result="effect1_dropShadow_0_1"/>
<feBlend mode="normal" in="SourceGraphic" in2="effect1_dropShadow_0_1" result="shape"/>
</filter>
<clipPath id="clip0_0_1">
<rect width="1600" height="1200" fill="white" transform="translate(-453 -1072)"/>
</clipPath>
<clipPath id="clip1_0_1">
<rect width="26" height="26" fill="white"/>
</clipPath>
</defs>
</svg>
