<svg width="22" height="22" viewBox="0 0 22 22" fill="none" xmlns="http://www.w3.org/2000/svg">
<g id="pray 1" clip-path="url(#clip0_1_349)">
<path id="Vector" d="M20.7094 14.6794L19.158 13.9078C18.5399 13.5927 18.2179 12.9746 18.2179 12.2718V9.18169C18.2179 8.52734 18.0604 7.87299 17.7694 7.27922L14.353 1.19722C13.9852 0.397855 12.9901 0.116358 12.258 0.604559C11.6885 0.984043 11.4675 1.71335 11.7299 2.34514L15.0793 8.92718C15.0913 8.92718 15.0793 8.93933 15.0913 8.93933C15.1519 9.13309 15.1883 9.32702 15.1883 9.53309V13.1686C15.1883 13.5078 14.856 13.7745 14.5166 13.7745C14.1773 13.7745 13.9765 13.5078 13.9765 13.1686V10.7449C13.9765 10.0756 13.434 9.53309 12.7647 9.53309C12.0953 9.53309 11.5528 10.0756 11.5528 10.7449V15.0174C11.5528 16.3499 12.2162 17.5756 13.387 18.2118L18.4915 20.9848C18.5762 21.0211 18.6611 21.0454 18.758 21.0454C18.7971 21.0454 18.8362 21.0415 18.8746 21.0339C19.0874 20.9916 19.261 20.8368 19.3278 20.6304L21.016 15.4082C21.1083 15.123 20.9778 14.8129 20.7094 14.6794Z" fill="#202142"/>
<path id="Vector_2" d="M8.64464 9.5339C7.97529 9.5339 7.43281 10.0764 7.43281 10.7457V13.1694C7.43281 13.5086 7.23195 13.7753 6.8927 13.7753C6.55329 13.7753 6.22099 13.5086 6.22099 13.1694V9.5339C6.22099 9.32783 6.25744 9.13406 6.31803 8.94014C6.33002 8.94014 6.31803 8.92799 6.33002 8.92799L9.67942 2.34595C9.94183 1.71416 9.72061 0.984853 9.1513 0.605369C8.41916 0.117325 7.42413 0.398822 7.05633 1.19803L3.63986 7.27988C3.3489 7.87364 3.19142 8.52815 3.19142 9.1825V12.2727C3.19142 12.9755 2.86938 13.5935 2.25131 13.9086L0.699925 14.6802C0.431524 14.8137 0.301032 15.1236 0.393339 15.409L2.08137 20.6311C2.14812 20.8375 2.32185 20.9924 2.53455 21.0347C2.57305 21.0423 2.61218 21.0462 2.65131 21.0462C2.74819 21.0462 2.83308 21.0219 2.91782 20.9857L8.02216 18.2125C9.19312 17.5764 9.85646 16.3507 9.85646 15.0182V10.7457C9.85646 10.0764 9.31398 9.5339 8.64464 9.5339Z" fill="#202142"/>
</g>
<defs>
<clipPath id="clip0_1_349">
<rect width="20.6818" height="20.6818" fill="white" transform="translate(0.36364 0.363647)"/>
</clipPath>
</defs>
</svg>
