<svg width="34" height="34" viewBox="0 0 34 34" fill="none" xmlns="http://www.w3.org/2000/svg">
<rect width="34" height="34" fill="#E5E5E5"/>
<g id="Day 1384 Landing Page UI Design" clip-path="url(#clip0_0_1)">
<rect width="1600" height="1200" transform="translate(-682 -410)" fill="white"/>
<rect id="Rectangle 18" x="-682" y="-410" width="1600" height="1200" fill="#EDEDF9"/>
<g id="Group 29">
<g id="Rectangle 14" filter="url(#filter0_d_0_1)">
<path d="M-589 -346C-589 -359.807 -577.807 -371 -564 -371H826C839.807 -371 851 -359.807 851 -346V728C851 741.807 839.807 753 826 753H-564C-577.807 753 -589 741.807 -589 728V-346Z" fill="white"/>
</g>
<rect id="Rectangle 9" x="-589" y="-251" width="1440" height="427" fill="#FCFCFF"/>
<g id="Rectangle 11" filter="url(#filter1_d_0_1)">
<rect x="-194" y="-20" width="651" height="74" rx="10" fill="white"/>
<rect x="-193.5" y="-19.5" width="650" height="73" rx="9.5" stroke="#EFEFFF"/>
</g>
<g id="Group 16" opacity="0.6">
<g id="icons/chevron-down" clip-path="url(#clip1_0_1)">
<path id="Vector" d="M14.1667 24.0833C19.6435 24.0833 24.0833 19.6435 24.0833 14.1667C24.0833 8.68984 19.6435 4.25 14.1667 4.25C8.68984 4.25 4.25 8.68984 4.25 14.1667C4.25 19.6435 8.68984 24.0833 14.1667 24.0833Z" stroke="#202142" stroke-width="2.125" stroke-linecap="round" stroke-linejoin="round"/>
<path id="Vector_2" d="M29.75 29.75L21.25 21.25" stroke="#202142" stroke-width="2.125" stroke-linecap="round" stroke-linejoin="round"/>
</g>
</g>
</g>
</g>
<defs>
<filter id="filter0_d_0_1" x="-634" y="-401" width="1530" height="1214" filterUnits="userSpaceOnUse" color-interpolation-filters="sRGB">
<feFlood flood-opacity="0" result="BackgroundImageFix"/>
<feColorMatrix in="SourceAlpha" type="matrix" values="0 0 0 0 0 0 0 0 0 0 0 0 0 0 0 0 0 0 127 0" result="hardAlpha"/>
<feOffset dy="15"/>
<feGaussianBlur stdDeviation="22.5"/>
<feColorMatrix type="matrix" values="0 0 0 0 0.095 0 0 0 0 0.106176 0 0 0 0 0.475 0 0 0 0.05 0"/>
<feBlend mode="normal" in2="BackgroundImageFix" result="effect1_dropShadow_0_1"/>
<feBlend mode="normal" in="SourceGraphic" in2="effect1_dropShadow_0_1" result="shape"/>
</filter>
<filter id="filter1_d_0_1" x="-214" y="-24" width="691" height="114" filterUnits="userSpaceOnUse" color-interpolation-filters="sRGB">
<feFlood flood-opacity="0" result="BackgroundImageFix"/>
<feColorMatrix in="SourceAlpha" type="matrix" values="0 0 0 0 0 0 0 0 0 0 0 0 0 0 0 0 0 0 127 0" result="hardAlpha"/>
<feMorphology radius="15" operator="erode" in="SourceAlpha" result="effect1_dropShadow_0_1"/>
<feOffset dy="16"/>
<feGaussianBlur stdDeviation="17.5"/>
<feColorMatrix type="matrix" values="0 0 0 0 0.00645834 0 0 0 0 0.0214645 0 0 0 0 0.516667 0 0 0 0.15 0"/>
<feBlend mode="normal" in2="BackgroundImageFix" result="effect1_dropShadow_0_1"/>
<feBlend mode="normal" in="SourceGraphic" in2="effect1_dropShadow_0_1" result="shape"/>
</filter>
<clipPath id="clip0_0_1">
<rect width="1600" height="1200" fill="white" transform="translate(-682 -410)"/>
</clipPath>
<clipPath id="clip1_0_1">
<rect width="34" height="34" fill="white"/>
</clipPath>
</defs>
</svg>
